<?xml version="1.0" standalone="no"?>
<!DOCTYPE svg PUBLIC "-//W3C//DTD SVG 20010904//EN"
 "http://www.w3.org/TR/2001/REC-SVG-20010904/DTD/svg10.dtd">
<svg version="1.0" xmlns="http://www.w3.org/2000/svg"
 width="1080.000000pt" height="1350.000000pt" viewBox="0 0 1080.000000 1350.000000"
 preserveAspectRatio="xMidYMid meet">

<g transform="translate(0.000000,1350.000000) scale(0.100000,-0.100000)"
fill="#000000" stroke="none">
<path d="M5138 10033 c-16 -2 -28 -9 -28 -14 0 -12 43 -10 115 6 l60 13 -60 0
c-33 -1 -72 -3 -87 -5z"/>
<path d="M4925 9990 c-58 -11 -105 -30 -251 -104 -73 -36 -136 -66 -141 -66
-11 0 -164 -87 -253 -143 -140 -90 -391 -291 -543 -437 -43 -41 -83 -76 -88
-78 -5 -2 -9 -16 -9 -31 0 -16 -10 -37 -24 -50 -14 -13 -26 -38 -28 -55 -3
-27 -7 -31 -30 -29 -22 1 -37 -9 -73 -51 -49 -57 -60 -84 -20 -46 14 13 27 21
30 18 3 -3 -27 -65 -66 -139 -130 -241 -205 -446 -229 -624 -5 -44 -10 -94
-10 -112 0 -24 -8 -38 -36 -62 -34 -27 -36 -32 -26 -58 23 -63 33 -122 29
-169 -3 -27 -6 -55 -6 -61 -1 -19 -38 -16 -45 3 -3 9 -6 28 -7 42 l-1 27 -13
-30 c-17 -36 -20 -302 -5 -367 14 -59 50 -206 60 -243 4 -16 15 -50 24 -75 10
-25 20 -53 23 -63 4 -12 9 -14 17 -7 9 7 20 -5 40 -43 16 -29 57 -95 91 -147
34 -52 70 -109 79 -127 17 -34 21 -73 8 -73 -10 0 -90 108 -128 171 -14 24
-23 35 -19 24 4 -11 11 -32 15 -46 20 -68 220 -409 239 -409 3 0 12 -12 19
-27 59 -129 445 -501 649 -625 135 -83 291 -157 423 -201 163 -55 248 -73 460
-98 105 -12 456 -5 536 10 27 6 76 15 109 21 253 48 599 157 790 251 55 27
104 49 109 49 34 0 -120 -105 -248 -168 -122 -60 -277 -117 -366 -135 -14 -3
-59 -12 -100 -21 -143 -32 -237 -39 -515 -39 -260 1 -466 10 -593 28 -69 9
-69 -8 1 -28 146 -42 155 -44 311 -67 38 -5 71 -11 73 -13 2 -2 -43 -9 -99
-16 -57 -6 -116 -13 -133 -15 -16 -2 47 -3 140 -1 94 1 190 7 215 13 25 6 106
16 180 22 74 5 158 15 185 20 99 20 231 49 265 59 19 5 60 17 90 25 93 26 339
127 450 185 209 110 274 141 283 138 5 -1 -16 -22 -48 -46 -31 -23 -54 -45
-51 -48 7 -8 257 161 287 194 l24 26 -25 -13 c-14 -7 -43 -25 -65 -40 -50 -34
-89 -48 -83 -29 5 16 70 67 188 147 118 80 113 78 105 53 -3 -11 -2 -21 2 -21
12 0 196 189 259 265 27 33 52 62 55 65 17 15 117 162 174 256 64 107 185 345
185 365 0 6 12 36 26 67 65 143 84 190 104 262 27 96 7 157 -39 116 -24 -22
-35 -21 -121 13 -86 33 -150 46 -181 36 -24 -8 -52 -68 -93 -200 -102 -330
-217 -547 -404 -763 -345 -398 -686 -627 -1086 -731 -150 -39 -234 -51 -436
-60 -433 -21 -828 38 -1149 171 -52 21 -99 42 -105 47 -6 5 -38 24 -71 42
-278 151 -533 409 -713 720 -45 79 -152 301 -152 317 0 3 -11 36 -24 72 -47
128 -71 218 -93 347 -4 23 -11 33 -26 35 -12 2 -23 12 -25 22 -3 15 0 18 17
13 12 -3 21 -2 21 1 0 4 -5 52 -10 107 -21 209 -10 410 30 575 4 19 14 60 20
90 7 30 32 113 56 184 29 89 40 134 33 142 -14 17 0 94 17 94 8 0 14 -7 14
-15 0 -28 15 -15 32 28 10 23 15 54 11 69 -7 36 33 104 52 88 18 -15 81 76 65
94 -7 9 -4 25 10 54 19 39 28 46 56 43 7 -1 41 38 76 86 89 121 289 326 428
437 183 148 293 218 540 347 42 22 271 130 318 150 17 8 32 17 32 21 0 9 -19
9 -75 -2z m-975 -627 c0 -13 -74 -83 -87 -83 -23 0 -14 17 27 54 38 34 60 45
60 29z m-160 -146 c0 -23 -17 -47 -32 -47 -12 0 -9 45 4 58 18 18 28 14 28
-11z m-636 -1688 c5 -15 6 -35 2 -45 -7 -17 -9 -17 -26 6 -25 32 -27 73 -3 68
10 -2 22 -15 27 -29z m56 -309 c0 -10 -4 -21 -9 -25 -16 -9 -51 46 -51 79 l1
31 29 -33 c17 -18 30 -41 30 -52z m4530 -20 c0 -11 -4 -20 -10 -20 -5 0 -10 9
-10 20 0 11 5 20 10 20 6 0 10 -9 10 -20z m-4525 -76 c19 -45 19 -74 2 -74
-13 0 -37 60 -37 94 0 28 19 17 35 -20z m4345 -373 c0 -25 -20 -38 -31 -20
-15 23 -10 39 11 39 13 0 20 -7 20 -19z m-50 -110 c0 -29 -54 -139 -107 -221
-102 -156 -383 -436 -383 -382 0 14 58 91 109 147 97 107 121 134 187 219 103
131 114 147 138 196 12 25 25 51 29 58 11 16 27 6 27 -17z m-4018 -168 c34
-34 50 -73 30 -73 -10 0 -43 36 -65 72 -32 51 -17 52 35 1z m4013 -3 c7 -11
-22 -80 -48 -115 -19 -25 -34 -12 -20 18 6 12 19 41 28 65 18 42 28 51 40 32z
m-3900 -142 c27 -12 35 -48 10 -48 -21 0 -62 27 -69 46 -7 17 23 19 59 2z
m3779 -40 c-8 -28 -49 -94 -63 -102 -17 -11 -24 15 -9 32 8 9 22 34 32 55 19
41 53 54 40 15z m-3691 -80 c20 -18 37 -41 37 -50 0 -10 -2 -18 -4 -18 -19 0
-41 19 -67 56 -36 53 -20 58 34 12z m3567 -43 c0 -30 -99 -165 -122 -165 -4 0
-8 7 -8 15 0 8 3 15 8 15 4 0 29 34 56 75 48 74 66 90 66 60z m-3438 -99 c58
-25 96 -60 79 -71 -16 -9 -135 57 -139 78 -4 22 -3 22 60 -7z m3129 -79 c-1
-4 -1 -14 -1 -22 0 -19 -26 -20 -33 -1 -3 7 0 19 6 25 12 12 29 11 28 -2z
m-2997 -42 c4 -11 -1 -15 -19 -15 -16 0 -25 6 -25 15 0 8 9 15 19 15 10 0 21
-7 25 -15z m2916 -40 c0 -27 -28 -67 -42 -59 -13 8 -9 32 8 59 21 32 34 32 34
0z m-2823 -31 c2 -6 -3 -14 -12 -18 -20 -7 -58 11 -49 25 8 13 56 7 61 -7z"/>
<path d="M5245 9539 c-4 -10 -1 -54 5 -97 24 -166 31 -222 45 -367 22 -207 38
-269 112 -425 46 -95 87 -205 139 -373 40 -131 76 -242 79 -248 4 -5 13 -9 21
-9 12 0 14 46 14 303 0 166 4 307 8 313 9 14 105 89 347 271 255 193 273 208
259 222 -7 8 -24 2 -58 -19 -67 -43 -219 -118 -296 -147 -81 -31 -227 -42
-296 -23 -89 25 -160 121 -249 336 -38 91 -83 214 -92 251 -7 29 -30 37 -38
12z"/>
<path d="M3600 9140 c0 -5 5 -10 10 -10 6 0 10 5 10 10 0 6 -4 10 -10 10 -5 0
-10 -4 -10 -10z"/>
<path d="M4615 8850 c4 -19 11 -53 16 -75 50 -217 50 -381 -2 -503 -22 -51
-78 -115 -120 -137 -68 -36 -289 -66 -491 -66 -100 0 -149 -12 -96 -23 37 -9
139 -28 193 -37 122 -20 164 -28 225 -44 175 -45 304 -51 490 -24 96 14 260
16 473 6 223 -12 224 -2 7 63 -58 18 -114 36 -125 40 -11 5 -56 20 -100 34
-44 14 -109 36 -144 48 l-65 23 -28 80 c-16 44 -40 114 -54 155 -13 41 -27 82
-31 90 -3 8 -34 98 -69 199 -61 176 -96 253 -79 171z m102 -412 c-3 -8 -6 -5
-6 6 -1 11 2 17 5 13 3 -3 4 -12 1 -19z"/>
<path d="M3416 8853 c-6 -14 -5 -15 5 -6 7 7 10 15 7 18 -3 3 -9 -2 -12 -12z"/>
<path d="M6952 8670 c-68 -33 -125 -60 -127 -60 -2 0 -41 -18 -87 -39 -45 -21
-121 -55 -167 -75 -46 -19 -98 -47 -117 -61 -18 -14 -36 -25 -41 -25 -5 0 -40
-30 -78 -67 -137 -130 -182 -167 -371 -299 -208 -146 -223 -159 -206 -176 8
-8 44 -1 139 30 364 118 439 142 451 142 13 0 185 -115 487 -325 83 -57 158
-104 168 -105 26 0 21 26 -10 50 -51 39 -200 189 -241 243 -54 70 -102 168
-111 229 -22 139 37 221 327 455 79 63 141 120 139 127 -7 22 -34 15 -155 -44z"/>
<path d="M5804 8643 c-35 -7 -84 -56 -98 -97 -17 -48 -7 -94 29 -141 36 -48
77 -67 146 -68 48 0 64 4 93 27 149 113 24 317 -170 279z"/>
<path d="M5045 8454 c-44 -24 -95 -75 -95 -95 0 -10 -4 -21 -10 -24 -31 -19
10 -123 64 -158 35 -23 107 -22 148 3 54 32 81 77 86 142 4 54 3 58 -34 97
-47 49 -108 63 -159 35z"/>
<path d="M3137 8278 c-9 -24 -19 -63 -21 -88 l-5 -45 13 50 c8 28 19 65 25 84
15 50 7 49 -12 -1z"/>
<path d="M6247 7983 c-42 -7 -103 -70 -117 -123 -31 -115 44 -230 151 -230 51
0 113 43 138 95 49 105 9 212 -94 252 -32 12 -34 12 -78 6z"/>
<path d="M5401 7673 c-40 -54 -98 -133 -129 -176 -31 -43 -80 -110 -108 -150
l-52 -72 -63 -6 c-35 -4 -188 -7 -339 -8 -276 -1 -380 -7 -380 -22 0 -4 35
-10 78 -14 262 -21 466 -96 550 -203 75 -94 63 -272 -43 -615 -14 -49 -24 -92
-20 -95 6 -6 44 36 45 49 0 6 132 242 225 404 80 139 110 221 129 355 13 87
37 174 98 355 44 132 85 248 90 259 6 12 6 22 0 28 -6 6 -35 -24 -81 -89z"/>
<path d="M5650 7717 c0 -8 81 -125 179 -262 160 -221 178 -250 171 -274 -5
-14 -22 -73 -39 -131 -33 -110 -75 -248 -96 -315 -58 -186 -78 -266 -67 -277
17 -17 25 -6 70 100 22 51 62 130 89 175 55 93 172 217 223 236 19 7 45 18 57
23 68 32 246 -42 486 -202 86 -57 143 -90 153 -86 9 3 14 10 12 15 -2 6 -57
67 -124 138 -66 70 -140 151 -164 178 -87 99 -196 207 -239 237 -24 17 -81 50
-125 73 -113 58 -145 79 -344 228 -97 73 -185 137 -197 144 -27 16 -45 16 -45
0z"/>
<path d="M4960 7673 c-31 -11 -80 -68 -86 -100 -3 -18 -3 -53 0 -77 14 -91
131 -165 208 -132 69 29 102 93 87 170 -10 56 -31 86 -84 120 -37 25 -88 32
-125 19z"/>
<path d="M5684 7346 c-162 -75 -115 -296 63 -296 187 0 255 216 93 298 -56 28
-92 28 -156 -2z"/>
<path d="M3698 6361 c12 -33 133 -152 222 -219 41 -31 84 -65 95 -75 83 -78
364 -242 349 -204 -5 14 -42 39 -222 145 -126 74 -208 140 -355 282 -60 58
-95 86 -89 71z"/>
<path d="M6609 5573 c-13 -15 -12 -15 9 -4 23 12 28 21 13 21 -5 0 -15 -7 -22
-17z"/>
<path d="M6160 5368 c-47 -11 -110 -23 -140 -28 -30 -5 -80 -16 -110 -25 l-55
-15 60 5 c153 14 300 46 345 75 21 14 4 12 -100 -12z"/>
<path d="M3760 4850 c-139 -15 -255 -72 -342 -169 -46 -51 -93 -136 -110 -198
-17 -59 -21 -203 -8 -248 48 -163 106 -244 231 -325 93 -60 152 -75 304 -75
111 0 139 4 189 23 170 65 290 202 331 374 20 85 19 148 -5 242 -43 170 -160
293 -332 350 -89 29 -159 36 -258 26z m175 -224 c52 -22 120 -91 146 -149 35
-78 33 -201 -5 -279 -51 -106 -153 -166 -266 -155 -207 18 -324 258 -223 452
25 47 84 106 128 126 49 23 170 26 220 5z"/>
<path d="M2600 4832 c-189 -59 -319 -194 -366 -382 -17 -71 -17 -123 0 -207
34 -162 114 -268 266 -355 148 -85 403 -74 600 27 73 37 70 28 70 242 l0 193
-105 0 c-77 0 -105 -3 -106 -12 -2 -20 -5 -85 -7 -175 l-2 -82 -71 -22 c-134
-41 -240 -13 -327 86 -40 46 -72 130 -72 193 0 52 28 143 57 185 56 81 128
117 233 117 72 0 161 -24 204 -55 11 -8 31 -22 43 -31 20 -15 23 -13 80 58 32
40 64 78 72 84 11 8 7 15 -18 37 -43 36 -144 83 -216 102 -81 21 -262 19 -335
-3z"/>
<path d="M1157 4798 c-3 -24 -3 -248 -1 -498 l4 -455 115 -3 115 -3 2 293 c2
212 6 293 14 293 7 0 70 -76 141 -170 71 -93 151 -199 179 -234 27 -35 67 -89
89 -120 l41 -56 112 -3 112 -3 -2 498 -3 498 -112 3 -113 3 0 -296 c0 -250 -2
-296 -14 -293 -12 3 -89 100 -298 378 -27 36 -74 98 -104 138 l-55 72 -108 0
-108 0 -6 -42z"/>
<path d="M4517 4834 c-4 -4 -7 -229 -7 -501 l0 -493 340 0 341 0 -3 108 -3
107 -210 5 -210 5 -5 385 -5 385 -116 3 c-63 1 -118 -1 -122 -4z"/>
<path d="M5320 4340 l0 -500 125 0 124 0 3 488 c2 268 1 493 -1 500 -2 9 -36
12 -127 12 l-124 0 0 -500z"/>
<path d="M5782 4343 l3 -498 113 -3 112 -3 0 295 c0 171 4 297 9 301 5 3 65
-67 133 -156 68 -89 170 -223 228 -298 l106 -136 107 -3 107 -3 -2 498 -3 498
-112 3 -113 3 0 -296 c0 -162 -4 -295 -9 -295 -4 0 -28 26 -53 58 -61 76 -333
436 -371 490 l-31 42 -113 0 -113 0 2 -497z"/>
<path d="M6910 4813 c0 -16 0 -104 -1 -198 -1 -93 -1 -306 0 -472 l1 -303 125
0 125 0 0 128 0 127 65 69 c52 56 67 67 79 57 7 -6 42 -55 77 -109 35 -53 69
-103 75 -109 7 -7 22 -29 35 -50 12 -21 36 -55 52 -75 l29 -38 144 0 c79 0
144 4 144 8 0 5 -19 35 -42 68 -22 32 -102 149 -176 259 -74 110 -141 207
-148 216 -31 35 -24 46 131 214 50 55 111 123 135 150 23 28 47 52 51 53 5 2
9 10 9 18 0 11 -25 14 -132 14 -73 0 -138 -4 -143 -8 -6 -4 -53 -56 -104 -117
-52 -60 -122 -141 -157 -180 -34 -38 -72 -82 -84 -98 -12 -15 -26 -25 -31 -22
-5 4 -9 99 -9 216 l0 209 -125 0 -125 0 0 -27z"/>
<path d="M7977 4833 c-4 -3 -7 -153 -7 -333 0 -358 3 -380 63 -483 76 -130
272 -208 462 -185 87 10 132 27 200 71 73 47 123 111 152 197 22 62 22 80 23
403 l0 338 -122 -3 -123 -3 -5 -330 c-5 -354 -6 -355 -61 -414 -42 -45 -115
-61 -198 -45 -43 9 -114 81 -129 132 -8 27 -12 139 -12 351 l0 311 -118 0
c-65 0 -122 -3 -125 -7z"/>
<path d="M9065 4828 c-3 -7 -4 -231 -3 -498 l3 -485 125 0 125 0 -2 135 c-1
94 2 137 10 142 7 4 74 8 150 8 163 0 215 13 297 75 42 31 63 57 89 108 32 62
35 74 35 165 1 73 -4 110 -19 150 -38 103 -137 177 -270 201 -86 16 -534 15
-540 -1z m489 -198 c22 -5 53 -22 70 -39 26 -26 30 -39 34 -93 4 -82 -17 -124
-78 -155 -38 -19 -61 -22 -151 -23 -77 0 -108 4 -111 13 -3 9 -2 241 1 295 1
15 174 17 235 2z"/>
</g>
</svg>
